<svg width="18" height="16" viewBox="0 0 18 16" fill="none" xmlns="http://www.w3.org/2000/svg">
<path d="M16.1667 6.24999H5.90824L8.75374 3.40448C9.08203 3.07635 9.26653 2.63123 9.26664 2.16706C9.26675 1.7029 9.08246 1.2577 8.75432 0.929402C8.42618 0.601108 7.98107 0.416613 7.5169 0.416504C7.05273 0.416395 6.60753 0.60068 6.27924 0.928819L2.09557 5.11248C1.33114 5.87903 0.901855 6.91742 0.901855 7.99998C0.901855 9.08255 1.33114 10.1209 2.09557 10.8875L6.27924 15.0712C6.60753 15.3993 7.05273 15.5836 7.5169 15.5835C7.98107 15.5834 8.42618 15.3989 8.75432 15.0706C9.08246 14.7423 9.26675 14.2971 9.26664 13.8329C9.26653 13.3687 9.08203 12.9236 8.75374 12.5955L5.90824 9.74998H16.1667C16.6309 9.74998 17.076 9.56561 17.4042 9.23742C17.7324 8.90923 17.9167 8.46411 17.9167 7.99998C17.9167 7.53586 17.7324 7.09074 17.4042 6.76255C17.076 6.43436 16.6309 6.24999 16.1667 6.24999Z" fill="#3C2F2F"/>
</svg>
