<svg width="30" height="28" viewBox="0 0 30 28" fill="none" xmlns="http://www.w3.org/2000/svg">
<g clip-path="url(#clip0_1_61)">
<path d="M28.7648 25.0196L23.2074 19.598C27.3657 14.1791 26.2319 6.49891 20.675 2.4439C15.1181 -1.6111 7.24234 -0.505436 3.08407 4.91347C-1.07419 10.3324 0.0596302 18.0125 5.61653 22.0675C10.0803 25.3249 16.2112 25.3249 20.675 22.0675L26.2347 27.4892C26.9333 28.1705 28.0661 28.1705 28.7647 27.4892C29.4634 26.8078 29.4634 25.7032 28.7647 25.0219L28.7648 25.0196ZM13.1921 21.0211C8.25338 21.0211 4.24981 17.117 4.24981 12.3009C4.24981 7.48484 8.25338 3.58069 13.1921 3.58069C18.1308 3.58069 22.1344 7.48484 22.1344 12.3009C22.1291 17.1148 18.1286 21.016 13.1921 21.0211Z" fill="#3C2F2F"/>
</g>
<defs>
<clipPath id="clip0_1_61">
<rect width="28.713" height="28" fill="white" transform="translate(0.577148)"/>
</clipPath>
</defs>
</svg>
